<svg xmlns="http://www.w3.org/2000/svg" viewBox="0 0 1024 1024">
  <defs>
    <linearGradient id="bg" x1="0" y1="0" x2="0" y2="1">
      <stop offset="0" stop-color="#141821"/>
      <stop offset="0.55" stop-color="#0C0E14"/>
      <stop offset="1" stop-color="#070809"/>
    </linearGradient>
    <radialGradient id="glow" cx="0.5" cy="0.48" r="0.55">
      <stop offset="0" stop-color="#FF7A1A" stop-opacity="0.34"/>
      <stop offset="0.45" stop-color="#FF7A1A" stop-opacity="0.10"/>
      <stop offset="1" stop-color="#FF7A1A" stop-opacity="0"/>
    </radialGradient>
    <radialGradient id="vig" cx="0.5" cy="0.5" r="0.72">
      <stop offset="0.6" stop-color="#000000" stop-opacity="0"/>
      <stop offset="1" stop-color="#000000" stop-opacity="0.45"/>
    </radialGradient>
    <linearGradient id="ring" x1="0" y1="0" x2="1" y2="0">
      <stop offset="0" stop-color="#17A2C4"/>
      <stop offset="0.5" stop-color="#3FDDEF"/>
      <stop offset="1" stop-color="#17A2C4"/>
    </linearGradient>
    <radialGradient id="core" cx="0.5" cy="0.5" r="0.5">
      <stop offset="0" stop-color="#FFF6E8" stop-opacity="0.95"/>
      <stop offset="0.5" stop-color="#FFD9A0" stop-opacity="0.35"/>
      <stop offset="1" stop-color="#FFD9A0" stop-opacity="0"/>
    </radialGradient>
  </defs>
  <rect x="0" y="0" width="1024" height="1024" rx="224" fill="url(#bg)"/>
  <rect x="0" y="0" width="1024" height="1024" rx="224" fill="url(#glow)"/>
  <rect x="0" y="0" width="1024" height="1024" rx="224" fill="url(#vig)"/>
  <rect x="44" y="44" width="936" height="936" rx="188" fill="none" stroke="#FF8C28" stroke-width="2" opacity="0.14"/>
  <path d="M 92 138 L 92 92 L 138 92" fill="none" stroke="#3FDDEF" stroke-width="3" opacity="0.22" stroke-linecap="round"/><path d="M 932 138 L 932 92 L 886 92" fill="none" stroke="#3FDDEF" stroke-width="3" opacity="0.22" stroke-linecap="round"/><path d="M 92 886 L 92 932 L 138 932" fill="none" stroke="#3FDDEF" stroke-width="3" opacity="0.22" stroke-linecap="round"/><path d="M 932 886 L 932 932 L 886 932" fill="none" stroke="#3FDDEF" stroke-width="3" opacity="0.22" stroke-linecap="round"/>
  <g transform="translate(512,556) rotate(-20)" stroke-linecap="round"><path d="M -372,0 A 372,116 0 0 0 372,0" fill="none" stroke="url(#ring)" stroke-width="8" opacity="0.5"/></g><g><polygon points="512.00,512.00 448.36,448.36 512.00,172.00" fill="#FFC983"/><polygon points="512.00,512.00 512.00,172.00 575.64,448.36" fill="#FFA95A"/><polygon points="512.00,512.00 262.00,512.00 448.36,448.36" fill="#FFA95A"/><polygon points="512.00,512.00 575.64,448.36 762.00,512.00" fill="#FB8A31"/><polygon points="512.00,512.00 448.36,575.64 262.00,512.00" fill="#F5731B"/><polygon points="512.00,512.00 512.00,852.00 448.36,575.64" fill="#DA5F17"/><polygon points="512.00,512.00 762.00,512.00 575.64,575.64" fill="#B94C13"/><polygon points="512.00,512.00 575.64,575.64 512.00,852.00" fill="#973D0F"/><line x1="512.0" y1="512.0" x2="512.00" y2="172.00" stroke="#FFE3B8" stroke-width="1.6" opacity="0.30"/><line x1="512.0" y1="512.0" x2="575.64" y2="448.36" stroke="#FFE3B8" stroke-width="1.6" opacity="0.30"/><line x1="512.0" y1="512.0" x2="762.00" y2="512.00" stroke="#FFE3B8" stroke-width="1.6" opacity="0.30"/><line x1="512.0" y1="512.0" x2="575.64" y2="575.64" stroke="#FFE3B8" stroke-width="1.6" opacity="0.30"/><line x1="512.0" y1="512.0" x2="512.00" y2="852.00" stroke="#FFE3B8" stroke-width="1.6" opacity="0.30"/><line x1="512.0" y1="512.0" x2="448.36" y2="575.64" stroke="#FFE3B8" stroke-width="1.6" opacity="0.30"/><line x1="512.0" y1="512.0" x2="262.00" y2="512.00" stroke="#FFE3B8" stroke-width="1.6" opacity="0.30"/><line x1="512.0" y1="512.0" x2="448.36" y2="448.36" stroke="#FFE3B8" stroke-width="1.6" opacity="0.30"/><polygon points="512.00,172.00 575.64,448.36 762.00,512.00 575.64,575.64 512.00,852.00 448.36,575.64 262.00,512.00 448.36,448.36" fill="none" stroke="#FFCF93" stroke-width="2.4" opacity="0.55" stroke-linejoin="round"/><circle cx="480" cy="484" r="58" fill="url(#core)"/><polygon points="508.00,470.00 477.54,473.54 474.00,504.00 470.46,473.54 440.00,470.00 470.46,466.46 474.00,436.00 477.54,466.46" fill="#FFFDF7" opacity="0.92"/><circle cx="474" cy="470" r="4" fill="#FFFFFF"/></g><g transform="translate(512,556) rotate(-20)" stroke-linecap="round"><path d="M -372,0 A 372,116 0 0 1 372,0" fill="none" stroke="url(#ring)" stroke-width="11" opacity="0.95"/><polygon points="293.1,56.4 308.1,71.4 293.1,86.4 278.1,71.4" fill="#7FEEF8"/><polygon points="293.1,56.4 308.1,71.4 293.1,86.4 278.1,71.4" fill="none" stroke="#3FDDEF" stroke-width="2" opacity="0.6"/><polygon points="-293.1,56.4 -278.1,71.4 -293.1,86.4 -308.1,71.4" fill="#7FEEF8"/><polygon points="-293.1,56.4 -278.1,71.4 -293.1,86.4 -308.1,71.4" fill="none" stroke="#3FDDEF" stroke-width="2" opacity="0.6"/></g>
</svg>