<svg xmlns="http://www.w3.org/2000/svg" viewBox="0 0 2666 560" width="2666" height="560">
  <defs>
      <linearGradient id="word" x1="0" y1="0" x2="0" y2="1">
        <stop offset="0" stop-color="#FFB667"/>
        <stop offset="1" stop-color="#F26E17"/>
      </linearGradient>
      <linearGradient id="lbg" x1="0" y1="0" x2="0" y2="1">
        <stop offset="0" stop-color="#12151C"/><stop offset="1" stop-color="#070809"/>
      </linearGradient>
      <radialGradient id="lglow" cx="0.16" cy="0.5" r="0.5">
        <stop offset="0" stop-color="#FF7A1A" stop-opacity="0.16"/>
        <stop offset="1" stop-color="#FF7A1A" stop-opacity="0"/>
      </radialGradient>
    </defs>
  <rect x="0" y="0" width="2666" height="560" rx="40" fill="url(#lbg)"/><rect x="0" y="0" width="2666" height="560" rx="40" fill="url(#lglow)"/>
  <g transform="translate(30,45.0) scale(0.458984375)">
  <defs>
    <linearGradient id="bgm" x1="0" y1="0" x2="0" y2="1">
      <stop offset="0" stop-color="#141821"/>
      <stop offset="0.55" stop-color="#0C0E14"/>
      <stop offset="1" stop-color="#070809"/>
    </linearGradient>
    <radialGradient id="glowm" cx="0.5" cy="0.48" r="0.55">
      <stop offset="0" stop-color="#FF7A1A" stop-opacity="0.34"/>
      <stop offset="0.45" stop-color="#FF7A1A" stop-opacity="0.10"/>
      <stop offset="1" stop-color="#FF7A1A" stop-opacity="0"/>
    </radialGradient>
    <radialGradient id="vigm" cx="0.5" cy="0.5" r="0.72">
      <stop offset="0.6" stop-color="#000000" stop-opacity="0"/>
      <stop offset="1" stop-color="#000000" stop-opacity="0.45"/>
    </radialGradient>
    <linearGradient id="ringm" x1="0" y1="0" x2="1" y2="0">
      <stop offset="0" stop-color="#17A2C4"/>
      <stop offset="0.5" stop-color="#3FDDEF"/>
      <stop offset="1" stop-color="#17A2C4"/>
    </linearGradient>
    <radialGradient id="corem" cx="0.5" cy="0.5" r="0.5">
      <stop offset="0" stop-color="#FFF6E8" stop-opacity="0.95"/>
      <stop offset="0.5" stop-color="#FFD9A0" stop-opacity="0.35"/>
      <stop offset="1" stop-color="#FFD9A0" stop-opacity="0"/>
    </radialGradient>
  </defs><g transform="translate(512,556) rotate(-20)" stroke-linecap="round"><path d="M -372,0 A 372,116 0 0 0 372,0" fill="none" stroke="url(#ringm)" stroke-width="8" opacity="0.5"/></g><g><polygon points="512.00,512.00 448.36,448.36 512.00,172.00" fill="#FFC983"/><polygon points="512.00,512.00 512.00,172.00 575.64,448.36" fill="#FFA95A"/><polygon points="512.00,512.00 262.00,512.00 448.36,448.36" fill="#FFA95A"/><polygon points="512.00,512.00 575.64,448.36 762.00,512.00" fill="#FB8A31"/><polygon points="512.00,512.00 448.36,575.64 262.00,512.00" fill="#F5731B"/><polygon points="512.00,512.00 512.00,852.00 448.36,575.64" fill="#DA5F17"/><polygon points="512.00,512.00 762.00,512.00 575.64,575.64" fill="#B94C13"/><polygon points="512.00,512.00 575.64,575.64 512.00,852.00" fill="#973D0F"/><line x1="512.0" y1="512.0" x2="512.00" y2="172.00" stroke="#FFE3B8" stroke-width="1.6" opacity="0.30"/><line x1="512.0" y1="512.0" x2="575.64" y2="448.36" stroke="#FFE3B8" stroke-width="1.6" opacity="0.30"/><line x1="512.0" y1="512.0" x2="762.00" y2="512.00" stroke="#FFE3B8" stroke-width="1.6" opacity="0.30"/><line x1="512.0" y1="512.0" x2="575.64" y2="575.64" stroke="#FFE3B8" stroke-width="1.6" opacity="0.30"/><line x1="512.0" y1="512.0" x2="512.00" y2="852.00" stroke="#FFE3B8" stroke-width="1.6" opacity="0.30"/><line x1="512.0" y1="512.0" x2="448.36" y2="575.64" stroke="#FFE3B8" stroke-width="1.6" opacity="0.30"/><line x1="512.0" y1="512.0" x2="262.00" y2="512.00" stroke="#FFE3B8" stroke-width="1.6" opacity="0.30"/><line x1="512.0" y1="512.0" x2="448.36" y2="448.36" stroke="#FFE3B8" stroke-width="1.6" opacity="0.30"/><polygon points="512.00,172.00 575.64,448.36 762.00,512.00 575.64,575.64 512.00,852.00 448.36,575.64 262.00,512.00 448.36,448.36" fill="none" stroke="#FFCF93" stroke-width="2.4" opacity="0.55" stroke-linejoin="round"/><circle cx="480" cy="484" r="58" fill="url(#corem)"/><polygon points="508.00,470.00 477.54,473.54 474.00,504.00 470.46,473.54 440.00,470.00 470.46,466.46 474.00,436.00 477.54,466.46" fill="#FFFDF7" opacity="0.92"/><circle cx="474" cy="470" r="4" fill="#FFFFFF"/></g><g transform="translate(512,556) rotate(-20)" stroke-linecap="round"><path d="M -372,0 A 372,116 0 0 1 372,0" fill="none" stroke="url(#ringm)" stroke-width="11" opacity="0.95"/><polygon points="293.1,56.4 308.1,71.4 293.1,86.4 278.1,71.4" fill="#7FEEF8"/><polygon points="293.1,56.4 308.1,71.4 293.1,86.4 278.1,71.4" fill="none" stroke="#3FDDEF" stroke-width="2" opacity="0.6"/><polygon points="-293.1,56.4 -278.1,71.4 -293.1,86.4 -308.1,71.4" fill="#7FEEF8"/><polygon points="-293.1,56.4 -278.1,71.4 -293.1,86.4 -308.1,71.4" fill="none" stroke="#3FDDEF" stroke-width="2" opacity="0.6"/></g></g>
  <g transform="translate(540,162.5) scale(1.2537094461671836)"><path d="M14.83,187.44 L14.83,0.00 L35.87,0.00 L35.87,166.40 L202.03,166.40 L202.03,187.44 L14.83,187.44 Z M247.80,187.44 Q239.18,187.44 232.03,183.30 Q224.88,179.12 220.74,171.97 Q216.60,164.82 216.60,156.24 L216.60,31.44 Q216.60,22.87 220.74,15.72 Q224.88,8.57 232.03,4.43 Q239.18,0.24 247.80,0.24 L372.60,0.24 Q381.17,0.24 388.32,4.43 Q395.47,8.57 399.61,15.72 Q403.80,22.87 403.80,31.44 L403.80,156.24 Q403.80,164.82 399.61,171.97 Q395.47,179.12 388.32,183.30 Q381.17,187.44 372.60,187.44 L247.80,187.44 Z M247.80,166.40 L372.60,166.40 Q376.74,166.40 379.71,163.39 Q382.71,160.39 382.71,156.24 L382.71,31.44 Q382.71,27.30 379.71,24.29 Q376.74,21.29 372.60,21.29 L247.80,21.29 Q243.61,21.29 240.61,24.29 Q237.64,27.30 237.64,31.44 L237.64,156.24 Q237.64,160.39 240.61,163.39 Q243.61,166.40 247.80,166.40 Z M432.89,187.44 L432.89,0.24 L588.89,0.24 Q597.46,0.24 604.61,4.43 Q611.76,8.57 615.91,15.72 Q620.09,22.87 620.09,31.44 L620.09,156.24 Q620.09,164.82 615.91,171.97 Q611.76,179.12 604.61,183.30 Q597.46,187.44 588.89,187.44 L432.89,187.44 Z M464.09,166.40 L588.89,166.40 Q593.08,166.40 596.04,163.39 Q599.05,160.39 599.05,156.24 L599.05,31.44 Q599.05,27.30 596.04,24.29 Q593.08,21.29 588.89,21.29 L464.09,21.29 Q459.95,21.29 456.94,24.29 Q453.98,27.30 453.98,31.44 L453.98,156.24 Q453.98,160.39 456.94,163.39 Q459.95,166.40 464.09,166.40 Z M649.73,187.44 L649.73,0.24 L820.56,0.24 L820.56,21.29 L670.82,21.29 L670.82,83.20 L791.19,83.20 L791.19,104.49 L670.82,104.49 L670.82,166.40 L820.56,166.40 L820.56,187.44 L649.73,187.44 Z M878.26,187.44 Q869.69,187.44 862.54,183.30 Q855.39,179.12 851.21,171.97 Q847.06,164.82 847.06,156.24 L847.06,148.97 L868.15,148.97 L868.15,156.24 Q868.15,160.39 871.11,163.39 Q874.12,166.40 878.26,166.40 L1003.06,166.40 Q1007.25,166.40 1010.21,163.39 Q1013.22,160.39 1013.22,156.24 L1013.22,114.40 Q1013.22,110.22 1010.21,107.37 Q1007.25,104.49 1003.06,104.49 L878.26,104.49 Q869.69,104.49 862.54,100.22 Q855.39,95.92 851.21,88.93 Q847.06,81.90 847.06,73.29 L847.06,31.44 Q847.06,22.87 851.21,15.72 Q855.39,8.57 862.54,4.43 Q869.69,0.24 878.26,0.24 L1003.06,0.24 Q1011.68,0.24 1018.83,4.43 Q1025.98,8.57 1030.12,15.72 Q1034.26,22.87 1034.26,31.44 L1034.26,38.72 L1013.22,38.72 L1013.22,31.44 Q1013.22,27.30 1010.21,24.29 Q1007.25,21.29 1003.06,21.29 L878.26,21.29 Q874.12,21.29 871.11,24.29 Q868.15,27.30 868.15,31.44 L868.15,73.29 Q868.15,77.47 871.11,80.36 Q874.12,83.20 878.26,83.20 L1003.06,83.20 Q1011.68,83.20 1018.83,87.51 Q1025.98,91.77 1030.12,98.80 Q1034.26,105.79 1034.26,114.40 L1034.26,156.24 Q1034.26,164.82 1030.12,171.97 Q1025.98,179.12 1018.83,183.30 Q1011.68,187.44 1003.06,187.44 L878.26,187.44 Z M1135.94,187.44 L1135.94,187.44 L1135.94,21.29 L1052.74,21.29 L1052.74,0.24 L1239.94,0.24 L1239.94,21.29 L1156.98,21.29 L1156.98,187.44 L1135.94,187.44 Z M1259.95,187.44 L1259.95,31.44 Q1259.95,22.87 1264.10,15.72 Q1268.28,8.57 1275.43,4.43 Q1282.58,0.24 1291.15,0.24 L1415.95,0.24 Q1424.52,0.24 1431.67,4.43 Q1438.82,8.57 1442.97,15.72 Q1447.15,22.87 1447.15,31.44 L1447.15,187.44 L1426.11,187.44 L1426.11,119.07 L1281.04,119.07 L1281.04,187.44 L1259.95,187.44 L1259.95,187.44 Z M1281.04,97.99 L1426.11,97.99 L1426.11,31.44 Q1426.11,27.30 1423.10,24.29 Q1420.14,21.29 1415.95,21.29 L1291.15,21.29 Q1287.01,21.29 1284.00,24.29 Q1281.04,27.30 1281.04,31.44 L1281.04,97.99 L1281.04,97.99 Z M1634.90,187.44 L1573.80,114.64 L1601.34,114.64 L1662.68,187.20 L1662.68,187.44 L1634.90,187.44 Z M1476.78,187.44 L1476.78,0.49 L1632.78,0.49 Q1641.40,0.49 1648.55,4.79 Q1655.70,9.10 1659.84,16.13 Q1663.98,23.12 1663.98,31.69 L1663.98,86.57 Q1663.98,95.14 1659.84,102.17 Q1655.70,109.20 1648.55,113.51 Q1641.40,117.77 1632.78,117.77 L1497.87,117.77 L1497.87,187.44 L1476.78,187.44 Z M1507.98,96.44 L1632.78,96.44 Q1636.97,96.44 1639.93,93.60 Q1642.94,90.72 1642.94,86.57 L1642.94,31.69 Q1642.94,27.54 1639.93,24.58 Q1636.97,21.57 1632.78,21.57 L1507.98,21.57 Q1503.84,21.57 1500.83,24.58 Q1497.87,27.54 1497.87,31.69 L1497.87,86.57 Q1497.87,90.72 1500.83,93.60 Q1503.84,96.44 1507.98,96.44 Z" fill="url(#word)"/></g>
  <g transform="translate(540,414.3) scale(0.4039185088859991)" fill="#7FC9D8" opacity="0.85"><path d="M5.59,72.09 L5.59,0.09 L16.70,0.09 L46.59,35.69 L76.50,0.09 L87.59,0.09 L87.59,72.09 L79.50,72.09 L79.50,9.30 L46.59,48.39 L13.70,9.30 L13.70,72.09 L5.59,72.09 Z M99.39,72.09 L99.39,0.09 L107.60,0.09 L107.60,72.09 L99.39,72.09 Z M119.79,72.09 L119.79,0.09 L130.90,0.09 L183.70,62.89 L183.70,0.09 L191.79,0.09 L191.79,72.09 L180.70,72.09 L127.90,9.30 L127.90,72.09 L119.79,72.09 Z M203.99,72.09 L203.99,0.09 L212.20,0.09 L212.20,72.09 L203.99,72.09 Z M224.39,72.09 L224.39,0.09 L235.50,0.09 L288.30,62.89 L288.30,0.09 L296.39,0.09 L296.39,72.09 L285.30,72.09 L232.50,9.30 L232.50,72.09 L224.39,72.09 Z M319.59,72.09 Q316.30,72.09 313.55,70.50 Q310.80,68.89 309.19,66.14 Q307.59,63.39 307.59,60.09 L307.59,12.09 Q307.59,8.80 309.19,6.05 Q310.80,3.30 313.55,1.70 Q316.30,0.09 319.59,0.09 L367.59,0.09 Q370.91,0.09 373.66,1.70 Q376.41,3.30 378.00,6.05 Q379.59,8.80 379.59,12.09 L379.59,15.00 L371.50,15.00 L371.50,12.09 Q371.50,10.50 370.34,9.34 Q369.20,8.19 367.59,8.19 L319.59,8.19 Q318.00,8.19 316.84,9.34 Q315.70,10.50 315.70,12.09 L315.70,60.09 Q315.70,61.69 316.84,62.84 Q318.00,64.00 319.59,64.00 L367.59,64.00 Q369.20,64.00 370.34,62.84 Q371.50,61.69 371.50,60.09 L371.50,42.30 L353.70,42.30 L353.70,34.09 L379.59,34.09 L379.59,60.09 Q379.59,63.39 378.00,66.14 Q376.41,68.89 373.66,70.50 Q370.91,72.09 367.59,72.09 L319.59,72.09 Z M429.79,72.09 Q426.50,72.09 423.75,70.50 Q421.00,68.89 419.39,66.14 Q417.79,63.39 417.79,60.09 L417.79,12.09 Q417.79,8.80 419.39,6.05 Q421.00,3.30 423.75,1.70 Q426.50,0.09 429.79,0.09 L489.61,0.09 L489.61,8.19 L429.79,8.19 Q428.20,8.19 427.04,9.34 Q425.90,10.50 425.90,12.09 L425.90,60.09 Q425.90,61.69 427.04,62.84 Q428.20,64.00 429.79,64.00 L489.61,64.00 L489.61,72.09 L429.79,72.09 Z M511.81,72.09 Q508.49,72.09 505.74,70.50 Q502.99,68.89 501.40,66.14 Q499.81,63.39 499.81,60.09 L499.81,12.09 Q499.81,8.80 501.40,6.05 Q502.99,3.30 505.74,1.70 Q508.49,0.09 511.81,0.09 L559.81,0.09 Q563.10,0.09 565.85,1.70 Q568.60,3.30 570.20,6.05 Q571.81,8.80 571.81,12.09 L571.81,60.09 Q571.81,63.39 570.20,66.14 Q568.60,68.89 565.85,70.50 Q563.10,72.09 559.81,72.09 L511.81,72.09 Z M511.81,64.00 L559.81,64.00 Q561.40,64.00 562.54,62.84 Q563.70,61.69 563.70,60.09 L563.70,12.09 Q563.70,10.50 562.54,9.34 Q561.40,8.19 559.81,8.19 L511.81,8.19 Q510.20,8.19 509.04,9.34 Q507.90,10.50 507.90,12.09 L507.90,60.09 Q507.90,61.69 509.04,62.84 Q510.20,64.00 511.81,64.00 Z M582.79,72.09 L582.79,0.09 L593.90,0.09 L623.79,35.69 L653.70,0.09 L664.79,0.09 L664.79,72.09 L656.70,72.09 L656.70,9.30 L623.79,48.39 L590.90,9.30 L590.90,72.09 L582.79,72.09 Z M675.59,72.09 L675.59,0.09 L686.70,0.09 L716.59,35.69 L746.50,0.09 L757.59,0.09 L757.59,72.09 L749.50,72.09 L749.50,9.30 L716.59,48.39 L683.70,9.30 L683.70,72.09 L675.59,72.09 Z M768.60,72.09 L768.60,12.09 Q768.60,8.80 770.19,6.05 Q771.80,3.30 774.55,1.70 Q777.30,0.09 780.60,0.09 L828.60,0.09 Q831.89,0.09 834.64,1.70 Q837.39,3.30 838.99,6.05 Q840.60,8.80 840.60,12.09 L840.60,72.09 L832.50,72.09 L832.50,45.80 L776.71,45.80 L776.71,72.09 L768.60,72.09 L768.60,72.09 Z M776.71,37.69 L832.50,37.69 L832.50,12.09 Q832.50,10.50 831.35,9.34 Q830.21,8.19 828.60,8.19 L780.60,8.19 Q779.00,8.19 777.85,9.34 Q776.71,10.50 776.71,12.09 L776.71,37.69 L776.71,37.69 Z M851.99,72.09 L851.99,0.09 L863.10,0.09 L915.90,62.89 L915.90,0.09 L923.99,0.09 L923.99,72.09 L912.90,72.09 L860.10,9.30 L860.10,72.09 L851.99,72.09 Z M935.40,72.09 L935.40,0.09 L995.40,0.09 Q998.69,0.09 1001.44,1.70 Q1004.19,3.30 1005.79,6.05 Q1007.40,8.80 1007.40,12.09 L1007.40,60.09 Q1007.40,63.39 1005.79,66.14 Q1004.19,68.89 1001.44,70.50 Q998.69,72.09 995.40,72.09 L935.40,72.09 Z M947.40,64.00 L995.40,64.00 Q997.01,64.00 998.15,62.84 Q999.30,61.69 999.30,60.09 L999.30,12.09 Q999.30,10.50 998.15,9.34 Q997.01,8.19 995.40,8.19 L947.40,8.19 Q945.80,8.19 944.65,9.34 Q943.51,10.50 943.51,12.09 L943.51,60.09 Q943.51,61.69 944.65,62.84 Q945.80,64.00 947.40,64.00 Z M1046.79,72.09 L1046.79,0.09 L1055.00,0.09 L1055.00,72.09 L1046.79,72.09 Z M1067.19,72.09 L1067.19,0.09 L1078.30,0.09 L1131.10,62.89 L1131.10,0.09 L1139.19,0.09 L1139.19,72.09 L1128.10,72.09 L1075.30,9.30 L1075.30,72.09 L1067.19,72.09 Z M1178.80,72.09 L1178.80,72.09 L1178.80,8.19 L1146.80,8.19 L1146.80,0.09 L1218.80,0.09 L1218.80,8.19 L1186.89,8.19 L1186.89,72.09 L1178.80,72.09 Z M1226.50,72.09 L1226.50,0.09 L1292.20,0.09 L1292.20,8.19 L1234.61,8.19 L1234.61,32.00 L1280.90,32.00 L1280.90,40.19 L1234.61,40.19 L1234.61,64.00 L1292.20,64.00 L1292.20,72.09 L1226.50,72.09 Z M1303.00,72.09 L1303.00,0.00 L1311.10,0.00 L1311.10,64.00 L1375.00,64.00 L1375.00,72.09 L1303.00,72.09 Z M1380.90,72.09 L1380.90,0.00 L1389.00,0.00 L1389.00,64.00 L1452.90,64.00 L1452.90,72.09 L1380.90,72.09 Z M1459.69,72.09 L1459.69,0.09 L1467.90,0.09 L1467.90,72.09 L1459.69,72.09 Z M1492.09,72.09 Q1488.80,72.09 1486.05,70.50 Q1483.30,68.89 1481.69,66.14 Q1480.09,63.39 1480.09,60.09 L1480.09,12.09 Q1480.09,8.80 1481.69,6.05 Q1483.30,3.30 1486.05,1.70 Q1488.80,0.09 1492.09,0.09 L1540.09,0.09 Q1543.41,0.09 1546.16,1.70 Q1548.91,3.30 1550.50,6.05 Q1552.09,8.80 1552.09,12.09 L1552.09,15.00 L1544.00,15.00 L1544.00,12.09 Q1544.00,10.50 1542.84,9.34 Q1541.70,8.19 1540.09,8.19 L1492.09,8.19 Q1490.50,8.19 1489.34,9.34 Q1488.20,10.50 1488.20,12.09 L1488.20,60.09 Q1488.20,61.69 1489.34,62.84 Q1490.50,64.00 1492.09,64.00 L1540.09,64.00 Q1541.70,64.00 1542.84,62.84 Q1544.00,61.69 1544.00,60.09 L1544.00,42.30 L1526.20,42.30 L1526.20,34.09 L1552.09,34.09 L1552.09,60.09 Q1552.09,63.39 1550.50,66.14 Q1548.91,68.89 1546.16,70.50 Q1543.41,72.09 1540.09,72.09 L1492.09,72.09 Z M1563.30,72.09 L1563.30,0.09 L1629.00,0.09 L1629.00,8.19 L1571.41,8.19 L1571.41,32.00 L1617.70,32.00 L1617.70,40.19 L1571.41,40.19 L1571.41,64.00 L1629.00,64.00 L1629.00,72.09 L1563.30,72.09 Z M1639.69,72.09 L1639.69,0.09 L1650.80,0.09 L1703.60,62.89 L1703.60,0.09 L1711.69,0.09 L1711.69,72.09 L1700.60,72.09 L1647.80,9.30 L1647.80,72.09 L1639.69,72.09 Z M1734.89,72.09 Q1731.60,72.09 1728.85,70.50 Q1726.10,68.89 1724.49,66.14 Q1722.89,63.39 1722.89,60.09 L1722.89,12.09 Q1722.89,8.80 1724.49,6.05 Q1726.10,3.30 1728.85,1.70 Q1731.60,0.09 1734.89,0.09 L1794.71,0.09 L1794.71,8.19 L1734.89,8.19 Q1733.30,8.19 1732.14,9.34 Q1731.00,10.50 1731.00,12.09 L1731.00,60.09 Q1731.00,61.69 1732.14,62.84 Q1733.30,64.00 1734.89,64.00 L1794.71,64.00 L1794.71,72.09 L1734.89,72.09 Z M1805.30,72.09 L1805.30,0.09 L1871.00,0.09 L1871.00,8.19 L1813.41,8.19 L1813.41,32.00 L1859.70,32.00 L1859.70,40.19 L1813.41,40.19 L1813.41,64.00 L1871.00,64.00 L1871.00,72.09 L1805.30,72.09 Z"/></g>
</svg>